<svg width="253" height="101" viewBox="0 0 253 101" fill="none" xmlns="http://www.w3.org/2000/svg">
<g clip-path="url(#clip0_196_400)">
<path d="M119.81 49.8535V79.1667H110.511V6.776H135.174C138.118 6.7145 141.045 7.23663 143.786 8.31226C146.527 9.38789 149.028 10.9957 151.145 13.043C153.283 14.9659 154.984 17.3242 156.135 19.9593C157.286 22.5945 157.859 25.4454 157.816 28.3205C157.877 31.211 157.313 34.0805 156.161 36.7324C155.01 39.3844 153.299 41.756 151.145 43.6847C146.832 47.7972 141.509 49.8515 135.174 49.8477H119.81V49.8535ZM119.81 15.6884V40.9584H135.405C137.115 41.0091 138.816 40.7024 140.401 40.0579C141.985 39.4134 143.418 38.4453 144.607 37.2156C145.789 36.0658 146.729 34.6905 147.371 33.1711C148.013 31.6517 148.344 30.019 148.344 28.3696C148.344 26.7202 148.013 25.0875 147.371 23.5681C146.729 22.0487 145.789 20.6734 144.607 19.5236C143.433 18.268 142.005 17.2762 140.419 16.614C138.833 15.9518 137.124 15.6343 135.405 15.6826H119.81V15.6884Z" fill="#5F6368"/>
<path d="M179.245 28.0202C186.118 28.0202 191.544 29.8569 195.522 33.5305C199.5 37.204 201.486 42.2407 201.483 48.6405V79.1667H192.588V72.2932H192.183C188.333 77.9537 183.211 80.784 176.819 80.784C171.363 80.784 166.798 79.1667 163.124 75.9321C161.361 74.4476 159.952 72.5883 158.998 70.4899C158.045 68.3915 157.572 66.1069 157.614 63.8025C157.614 58.6773 159.551 54.6013 163.425 51.5747C167.298 48.5481 172.47 47.0309 178.939 47.0232C184.461 47.0232 189.008 48.034 192.582 50.0556V47.9301C192.592 46.3591 192.253 44.8054 191.589 43.3818C190.924 41.9582 189.952 40.7003 188.741 39.6992C186.282 37.4806 183.077 36.27 179.765 36.3087C174.57 36.3087 170.46 38.4998 167.433 42.8818L159.243 37.7238C163.748 31.2547 170.415 28.0202 179.245 28.0202ZM167.214 64.0047C167.207 65.1882 167.484 66.3561 168.021 67.411C168.557 68.4659 169.338 69.3774 170.298 70.0695C172.355 71.6873 174.907 72.5444 177.524 72.4954C181.448 72.4888 185.21 70.9269 187.984 68.1518C191.065 65.2523 192.605 61.8502 192.605 57.9456C189.705 55.6352 185.662 54.48 180.475 54.48C176.698 54.48 173.548 55.3907 171.026 57.2121C168.479 59.0604 167.214 61.3073 167.214 64.0047V64.0047Z" fill="#5F6368"/>
<path d="M252.543 29.6374L221.491 101H211.891L223.414 76.0303L202.996 29.6374H213.104L227.862 65.2176H228.064L242.417 29.6374H252.543Z" fill="#5F6368"/>
<path d="M82.2314 43.5345C82.235 40.7005 81.9953 37.8715 81.5152 35.0784H42.2961V51.0953H64.759C64.2994 53.6534 63.3265 56.092 61.899 58.264C60.4715 60.436 58.619 62.2964 56.4531 63.7332V74.13H69.8592C77.7088 66.8927 82.2314 56.1897 82.2314 43.5345Z" fill="#4285F4"/>
<path d="M42.296 84.1745C53.5187 84.1745 62.9683 80.4894 69.8591 74.1358L56.453 63.739C52.7217 66.2689 47.916 67.7129 42.296 67.7129C31.4486 67.7129 22.2417 60.4004 18.9493 50.5466H5.13892V61.2611C8.60029 68.1488 13.9079 73.939 20.4693 77.9851C27.0306 82.0313 34.5874 84.1741 42.296 84.1745V84.1745Z" fill="#34A853"/>
<path d="M18.9494 50.5466C17.2089 45.3831 17.2089 39.7914 18.9494 34.6279V23.9134H5.13899C2.22717 29.7076 0.710693 36.1025 0.710693 42.5873C0.710693 49.072 2.22717 55.4669 5.13899 61.2611L18.9494 50.5466Z" fill="#FBBC04"/>
<path d="M42.296 17.4616C48.2267 17.3647 53.9574 19.6055 58.2493 23.6997L70.119 11.83C62.5924 4.76062 52.6213 0.8794 42.296 0.999997C34.5874 1.00035 27.0306 3.14321 20.4693 7.18935C13.9079 11.2355 8.60029 17.0257 5.13892 23.9134L18.9493 34.6279C22.2417 24.774 31.4486 17.4616 42.296 17.4616Z" fill="#EA4335"/>
</g>
<defs>
<clipPath id="clip0_196_400">
<rect width="251.832" height="100.003" fill="white" transform="translate(0.710693 0.997269)"/>
</clipPath>
</defs>
</svg>
